<svg xmlns="http://www.w3.org/2000/svg" viewBox="0 0 128 128" role="img" aria-label="Canva logo">
  <defs>
    <linearGradient id="canvaGradient" x1="0" y1="0" x2="1" y2="1">
      <stop offset="0%" stop-color="#00C4CC" />
      <stop offset="100%" stop-color="#7D2AE8" />
    </linearGradient>
  </defs>
  <circle cx="64" cy="64" r="58" fill="url(#canvaGradient)" />
  <path
    d="M84 88c-6 5-12 8-19 8-15 0-26-12-26-29 0-18 12-31 29-31 6 0 12 2 17 6l-6 10c-3-2-6-4-10-4-9 0-15 7-15 18 0 10 6 18 14 18 4 0 8-2 12-5l4 9z"
    fill="#ffffff"
  />
</svg>
